{
    "asset" : {
        "generator" : "Khronos glTF Blender I/O v0.9.36",
        "version" : "2.0"
    },
    "scene" : 0,
    "scenes" : [
        {
            "name" : "Scene",
            "nodes" : [
                0,
                1,
                2
            ]
        }
    ],
    "nodes" : [
        {
            "mesh" : 0,
            "name" : "earth"
        },
        {
            "mesh" : 1,
            "name" : "celSphere"
        },
        {
            "mesh" : 2,
            "name" : "starProto"
        }
    ],
    "materials" : [
        {
            "doubleSided" : true,
            "name" : "Material",
            "pbrMetallicRoughness" : {
                "baseColorFactor" : [
                    0.053020231425762177,
                    0.3056623935699463,
                    0.8000000715255737,
                    1
                ],
                "metallicFactor" : 0,
                "roughnessFactor" : 0.5
            }
        },
        {
            "doubleSided" : true,
            "name" : "Material.001",
            "pbrMetallicRoughness" : {
                "baseColorFactor" : [
                    0.046526163816452026,
                    0.4463041424751282,
                    0.8000000715255737,
                    1
                ],
                "metallicFactor" : 0,
                "roughnessFactor" : 0.5
            }
        }
    ],
    "meshes" : [
        {
            "name" : "Sphere.002",
            "primitives" : [
                {
                    "attributes" : {
                        "POSITION" : 0,
                        "NORMAL" : 1
                    },
                    "indices" : 2,
                    "material" : 0
                }
            ]
        },
        {
            "name" : "Sphere.003",
            "primitives" : [
                {
                    "attributes" : {
                        "POSITION" : 3,
                        "NORMAL" : 4
                    },
                    "indices" : 5,
                    "material" : 1
                }
            ]
        },
        {
            "name" : "Sphere",
            "primitives" : [
                {
                    "attributes" : {
                        "POSITION" : 6,
                        "NORMAL" : 7
                    },
                    "indices" : 8
                }
            ]
        }
    ],
    "accessors" : [
        {
            "bufferView" : 0,
            "componentType" : 5126,
            "count" : 2520,
            "max" : [
                0.9999994039535522,
                1,
                0.999998927116394
            ],
            "min" : [
                -0.9999990463256836,
                -1,
                -1
            ],
            "type" : "VEC3"
        },
        {
            "bufferView" : 1,
            "componentType" : 5126,
            "count" : 2520,
            "type" : "VEC3"
        },
        {
            "bufferView" : 2,
            "componentType" : 5123,
            "count" : 3672,
            "type" : "SCALAR"
        },
        {
            "bufferView" : 3,
            "componentType" : 5126,
            "count" : 20160,
            "max" : [
                6.00999641418457,
                6.010000228881836,
                6.009993076324463
            ],
            "min" : [
                -6.0099945068359375,
                -6.010000228881836,
                -6.010000228881836
            ],
            "type" : "VEC3"
        },
        {
            "bufferView" : 4,
            "componentType" : 5126,
            "count" : 20160,
            "type" : "VEC3"
        },
        {
            "bufferView" : 5,
            "componentType" : 5123,
            "count" : 30240,
            "type" : "SCALAR"
        },
        {
            "bufferView" : 6,
            "componentType" : 5126,
            "count" : 180,
            "max" : [
                0.04999999329447746,
                0.05000000074505806,
                0.04999999701976776
            ],
            "min" : [
                -0.05000000447034836,
                -0.05000000074505806,
                -0.05000000447034836
            ],
            "type" : "VEC3"
        },
        {
            "bufferView" : 7,
            "componentType" : 5126,
            "count" : 180,
            "type" : "VEC3"
        },
        {
            "bufferView" : 8,
            "componentType" : 5123,
            "count" : 252,
            "type" : "SCALAR"
        }
    ],
    "bufferViews" : [
        {
            "buffer" : 0,
            "byteLength" : 30240,
            "byteOffset" : 0
        },
        {
            "buffer" : 0,
            "byteLength" : 30240,
            "byteOffset" : 30240
        },
        {
            "buffer" : 0,
            "byteLength" : 7344,
            "byteOffset" : 60480
        },
        {
            "buffer" : 0,
            "byteLength" : 241920,
            "byteOffset" : 67824
        },
        {
            "buffer" : 0,
            "byteLength" : 241920,
            "byteOffset" : 309744
        },
        {
            "buffer" : 0,
            "byteLength" : 60480,
            "byteOffset" : 551664
        },
        {
            "buffer" : 0,
            "byteLength" : 2160,
            "byteOffset" : 612144
        },
        {
            "buffer" : 0,
            "byteLength" : 2160,
            "byteOffset" : 614304
        },
        {
            "buffer" : 0,
            "byteLength" : 504,
            "byteOffset" : 616464
        }
    ],
    "buffers" : [
        {
            "byteLength" : 616968,
            "uri" : "data:application/octet-stream;base64,"
        }
    ]
}
